<svg
   version="1.1"
   width="300"
   height="88.701675"
   id="svg4329"
   xmlns="http://www.w3.org/2000/svg"
   xmlns:svg="http://www.w3.org/2000/svg"
   xmlns:rdf="http://www.w3.org/1999/02/22-rdf-syntax-ns#"
   xmlns:cc="http://creativecommons.org/ns#"
   xmlns:dc="http://purl.org/dc/elements/1.1/">
  <defs
     id="defs4331" />


    <path
       d="m 246.5873,55.64429 8.99047,-29.94035 9.00952,29.94035 z m -65.93272,9.835478 H 175.105 V 24.025362 h 5.47726 c 8.30915,0 17.53181,3.467538 17.53181,20.622529 0,15.221392 -8.16451,20.831877 -17.45949,20.831877 M 34.420365,55.64429 43.616384,25.342341 52.652539,55.64429 Z M 271.9715,2.5197702 H 241.04152 L 223.36507,53.862942 c 0.82977,-4.266862 0.96299,-7.658274 0.96299,-9.157956 0,-21.505591 -12.2601,-42.1852158 -41.06616,-42.1852158 h -33.04249 l 0.0609,51.0843438 c -2.8395,-14.509613 -16.00929,-18.426296 -32.39161,-23.423967 -6.14336,-1.876505 -9.50813,-4.894901 -8.2825,-7.715368 1.04672,-2.447451 4.79213,-3.216323 9.35968,-2.573058 6.95031,0.974412 12.49609,3.326705 17.85916,6.246136 L 144.14075,7.9551657 C 142.4812,7.0987483 130.64362,0 115.82188,0 95.092776,0 81.900143,10.117144 81.900143,25.110157 c 0,13.32966 8.194963,21.094511 23.226037,25.475562 16.15393,4.677941 20.25713,6.588704 19.77754,11.281871 -0.44154,4.000421 -10.46352,8.918159 -34.983705,-6.2233 L 82.657597,70.774331 60.120499,2.5197702 H 29.213348 L 0,87.377408 h 24.38696 l 3.787268,-12.008875 h 30.732061 l 3.623596,12.008875 H 88.14628 L 85.226848,79.083482 C 93.870955,84.10399 104.61994,88.702 117.44717,88.702 c 19.62909,0 30.25247,-10.790858 32.81411,-21.143993 v 19.819401 h 32.97017 c 19.66334,0 29.95557,-9.43201 35.31484,-19.518703 l -6.71432,19.518703 h 24.36032 l 3.92049,-12.008875 h 30.70542 l 3.53605,12.008875 H 300.0011 L 271.9715,2.5197702"
       id="path202"
       style="fill:#7dc242;fill-opacity:1;fill-rule:nonzero;stroke:none;stroke-width:3.8063" />
</svg>
